<?xml version="1.0" encoding="UTF-8"?>
<svg xmlns="http://www.w3.org/2000/svg" xmlns:xlink="http://www.w3.org/1999/xlink" width="40px" height="40px" viewBox="0 0 40 40" version="1.1">
<g id="surface1">
<path style="fill-rule:nonzero;fill:rgb(0%,0%,0%);fill-opacity:1;stroke-width:10.752;stroke-linecap:butt;stroke-linejoin:miter;stroke:rgb(76.078433%,75.686276%,75.686276%);stroke-opacity:1;stroke-miterlimit:4;" d="M 511.65 269.65 C 511.2 267.25 510.5 264.9 509.55 262.3 C 507.75 257.45 505.15 251.95 501.8 245.7 C 495.95 234.75 487.9 221.8 478.3 208.05 C 463.9 187.45 446.2 165.2 427.7 146.15 C 418.45 136.65 408.95 127.95 399.55 120.7 C 390.1 113.4 380.75 107.5 371.45 103.7 C 368.6 102.55 365.35 103 362.95 104.9 C 360.55 106.8 359.3 109.8 359.75 112.85 C 360.2 115.95 360.4 119 360.4 121.95 C 360.4 128.1 359.5 133.9 357.9 139.45 C 355.05 149.15 350 158 343.75 165.9 C 334.4 177.75 322.35 187.35 312.1 193.85 C 307 197.1 302.3 199.6 298.75 201.3 C 297.7 201.75 296.8 202.15 296 202.45 C 296.25 201.2 296.6 199.75 297 198.1 C 297.85 194.6 299.05 190.4 300.2 185.8 C 301.35 181.15 302.45 176.15 303.05 170.85 C 303.25 169.4 303.35 168.1 303.35 166.8 C 303.35 165.85 303.3 164.85 303.1 163.8 C 303 163 302.8 162.15 302.4 161.2 C 302.15 160.5 301.75 159.75 301.2 159 C 300.4 157.8 299.15 156.6 297.65 155.85 C 296.9 155.45 296.1 155.2 295.3 155 C 294.55 154.8 293.8 154.75 293.1 154.75 C 292.05 154.75 291.15 154.9 290.4 155.1 C 288.9 155.5 287.85 156.05 286.9 156.6 C 286.05 157.1 285.3 157.65 284.6 158.2 C 283.25 159.2 282 160.35 280.7 161.6 C 278.5 163.7 276.15 166.15 273.7 168.65 C 271.85 170.5 270 172.4 268.1 174.15 C 265.35 176.75 262.55 179.05 260.25 180.45 C 259.1 181.2 258.1 181.7 257.35 181.95 C 256.6 182.25 256.1 182.3 256 182.3 C 255.95 182.3 255.75 182.25 255.45 182.2 C 254.85 182.05 253.9 181.7 252.7 181.05 C 250.6 179.85 247.95 177.8 245.25 175.4 C 243.2 173.55 241.15 171.5 239.1 169.45 C 237.6 167.9 236.1 166.4 234.65 164.9 C 233.55 163.8 232.5 162.75 231.45 161.75 C 229.85 160.25 228.4 158.85 226.7 157.65 C 225.8 157 224.9 156.45 223.75 155.9 C 223.15 155.6 222.5 155.35 221.7 155.15 C 220.9 154.9 220 154.75 218.9 154.75 C 218.1 154.75 217.2 154.85 216.25 155.1 C 215.45 155.35 214.6 155.65 213.85 156.1 C 212.55 156.9 211.45 158 210.75 159.05 C 210.2 159.85 209.8 160.6 209.55 161.35 C 209.15 162.4 208.95 163.35 208.8 164.25 C 208.7 165.15 208.65 166 208.65 166.8 C 208.65 168.1 208.75 169.4 208.9 170.85 C 209.9 178.9 211.9 186.4 213.6 192.65 C 214.4 195.75 215.15 198.6 215.65 200.9 C 215.8 201.45 215.9 202 216 202.5 C 214.65 201.9 212.95 201.15 211.1 200.25 C 206.2 197.8 199.9 194.1 193.25 189.35 C 183.3 182.25 172.7 172.65 164.8 161.25 C 160.8 155.55 157.5 149.4 155.2 142.85 C 152.9 136.3 151.6 129.4 151.6 121.95 C 151.6 119 151.8 116 152.25 112.85 C 152.65 109.85 151.45 106.8 149.05 104.9 C 146.65 103 143.4 102.55 140.55 103.7 C 132.75 106.9 124.9 111.55 117 117.3 C 103.2 127.3 89.2 140.55 75.85 155.15 C 55.8 177.05 37.2 201.95 23.4 223.4 C 16.55 234.1 10.9 243.95 6.85 252.2 C 4.8 256.35 3.2 260.1 2 263.55 C 1.4 265.25 0.95 266.9 0.6 268.5 C 0.25 270.1 0 271.65 0 273.4 C 0 274.6 0.1 275.9 0.5 277.35 C 0.75 278.05 1 278.85 1.45 279.6 C 1.85 280.4 2.4 281.15 3.05 281.9 C 4.55 283.5 6.3 284.6 8 285.4 C 9.55 286.15 11.15 286.6 12.65 286.9 C 15.5 287.45 18.2 287.6 20.95 287.65 C 23.4 287.75 25.9 287.75 28.45 287.8 C 32.95 287.9 37.6 288.1 42.4 289.05 C 46 289.7 49.65 290.75 53.35 292.4 C 58.85 294.8 64.5 298.55 70.2 304.65 C 75.95 310.75 81.7 319.25 87.1 331.2 C 88.25 333.75 90.5 335.55 93.25 336.1 C 95.95 336.6 98.75 335.8 100.75 333.9 C 105.2 329.7 109.65 326.6 113.9 324.6 C 118.2 322.55 122.25 321.6 126 321.6 C 129.35 321.6 132.5 322.3 135.8 323.85 C 138.2 325.05 140.7 326.7 143.2 329.05 C 147 332.5 150.8 337.45 154.35 344.1 C 157.95 350.75 161.25 359.1 164.1 369.2 C 164.85 371.9 166.85 374.05 169.45 374.95 C 172.1 375.9 175 375.5 177.25 373.9 C 183.65 369.35 189.3 366.35 194.2 364.5 C 199.15 362.6 203.35 361.9 206.95 361.9 C 209.65 361.9 212.1 362.3 214.35 363 C 216.35 363.6 218.2 364.5 220.05 365.6 C 223.2 367.5 226.2 370.15 229 373.25 C 233.15 378 236.85 383.8 240.05 389.5 C 241.65 392.3 243.15 395.1 244.55 397.75 C 246 400.35 247.4 402.8 248.85 405.05 C 250.45 407.45 253.1 408.9 256 408.9 C 258.9 408.9 261.55 407.45 263.15 405.05 C 264.45 403.1 265.65 401 266.9 398.75 C 269.05 394.8 271.35 390.45 273.9 386.1 C 275.85 382.85 277.95 379.65 280.2 376.7 C 283.6 372.3 287.35 368.5 291.4 365.95 C 293.45 364.65 295.55 363.65 297.75 362.95 C 300 362.3 302.4 361.9 305.05 361.9 C 308.65 361.9 312.85 362.65 317.8 364.5 C 322.7 366.35 328.35 369.35 334.75 373.9 C 337 375.5 339.9 375.9 342.55 374.95 C 345.15 374.05 347.15 371.9 347.9 369.2 C 350.45 360.2 353.35 352.6 356.45 346.4 C 358.8 341.7 361.25 337.75 363.75 334.55 C 367.5 329.75 371.3 326.5 375 324.5 C 378.7 322.5 382.25 321.6 386 321.6 C 389.8 321.6 393.8 322.55 398.1 324.6 C 402.35 326.6 406.8 329.7 411.25 333.9 C 413.25 335.8 416.05 336.6 418.8 336.1 C 421.5 335.55 423.75 333.75 424.9 331.2 C 428.5 323.3 432.2 316.9 435.95 311.7 C 439.25 307.2 442.6 303.55 445.85 300.65 C 451.65 295.6 457.25 292.65 462.8 290.8 C 471.1 288 479.25 287.8 486.7 287.75 C 488.6 287.7 490.4 287.7 492.2 287.65 C 494.95 287.5 497.6 287.35 500.4 286.65 C 501.8 286.3 503.25 285.8 504.75 285.05 C 506.2 284.3 507.7 283.25 508.95 281.9 C 509.6 281.15 510.15 280.4 510.55 279.6 C 511.2 278.45 511.55 277.3 511.75 276.3 C 511.95 275.25 512 274.3 512 273.4 C 512 272.1 511.85 270.85 511.65 269.65 Z M 490.25 270.6 C 486 270.7 480.25 270.6 473.7 271.2 C 468.85 271.7 463.45 272.6 457.85 274.45 C 453.65 275.8 449.35 277.65 445.05 280.2 C 438.6 284 432.15 289.35 426.15 296.55 C 422 301.55 418 307.4 414.25 314.3 C 411.4 312.3 408.45 310.6 405.4 309.15 C 399.2 306.2 392.65 304.5 386 304.55 C 380.15 304.5 374.3 305.85 368.85 308.45 C 364.7 310.45 360.8 313.15 357.2 316.5 C 351.75 321.55 346.9 328.05 342.6 336 C 339.8 341.25 337.2 347.2 334.9 353.75 C 331.1 351.6 327.4 349.85 323.8 348.5 C 317.25 346 310.95 344.85 305.05 344.85 C 300.65 344.85 296.45 345.5 292.6 346.7 C 289.2 347.75 286.05 349.2 283.2 350.95 C 278.15 354 273.9 357.85 270.25 361.95 C 264.75 368.15 260.6 374.95 257.1 381.05 C 256.75 381.75 256.35 382.4 256 383.05 C 255 381.2 253.9 379.3 252.75 377.35 C 250.6 373.75 248.15 370 245.35 366.3 C 241.15 360.85 236.1 355.55 229.75 351.5 C 226.55 349.5 223.05 347.8 219.25 346.65 C 215.45 345.45 211.3 344.8 206.95 344.85 C 201.05 344.8 194.75 346 188.2 348.5 C 184.6 349.85 180.9 351.6 177.15 353.75 C 175.2 348.3 173.1 343.3 170.8 338.75 C 168.05 333.2 165 328.3 161.75 324.1 C 156.8 317.75 151.3 312.85 145.2 309.5 C 139.15 306.2 132.55 304.5 126 304.5 C 119.35 304.5 112.8 306.2 106.6 309.15 C 103.6 310.6 100.65 312.3 97.8 314.3 C 95.25 309.65 92.6 305.45 89.85 301.7 C 85.9 296.2 81.75 291.65 77.45 287.85 C 69.95 281.25 62.1 277.1 54.6 274.6 C 43.4 270.85 33.05 270.75 25.5 270.65 C 23.6 270.65 21.9 270.6 20.45 270.55 C 19.4 270.55 18.5 270.45 17.75 270.4 C 17.95 269.75 18.2 269 18.5 268.2 C 19.85 264.5 22.15 259.5 25.25 253.75 C 30.65 243.65 38.45 231.1 47.7 217.8 C 61.6 197.9 78.85 176.25 96.55 158.1 C 105.4 149.05 114.3 140.85 122.9 134.2 C 126.9 131.1 130.85 128.35 134.6 126 C 134.95 132.4 136 138.5 137.7 144.25 C 141.3 156.5 147.55 167.25 154.85 176.5 C 165.85 190.4 179.25 200.95 190.7 208.25 C 196.45 211.9 201.75 214.75 206.05 216.75 C 208.25 217.8 210.2 218.6 211.9 219.2 C 212.8 219.5 213.6 219.8 214.4 220 C 215.25 220.2 216.05 220.4 217.1 220.5 C 217.85 220.6 218.55 220.6 219.3 220.6 C 221.1 220.6 223.05 220.4 225 219.65 C 226.45 219.1 227.9 218.25 229.1 217.15 C 230 216.3 230.8 215.35 231.4 214.35 C 232.3 212.85 232.8 211.35 233.1 209.95 C 233.4 208.5 233.5 207.2 233.5 205.95 C 233.5 204.45 233.35 203 233.15 201.6 C 232.8 199.1 232.25 196.6 231.6 193.95 C 230.75 190.55 229.75 187 228.8 183.3 C 229.9 184.4 231.05 185.5 232.2 186.6 C 235.45 189.6 238.9 192.55 242.65 194.95 C 244.55 196.1 246.55 197.2 248.75 198 C 250.95 198.8 253.35 199.35 256 199.35 C 257.6 199.35 259.05 199.15 260.5 198.85 C 263.1 198.2 265.5 197.15 267.65 195.9 C 271.5 193.75 274.95 191 278.15 188.1 C 279.9 186.5 281.6 184.9 283.2 183.3 C 282.8 185 282.35 186.65 281.9 188.25 C 281.05 191.4 280.25 194.4 279.65 197.25 C 279.3 198.7 279.05 200.15 278.85 201.6 C 278.65 203 278.5 204.45 278.5 205.95 C 278.5 207.45 278.65 209 279.1 210.7 C 279.45 212 279.95 213.35 280.85 214.65 C 281.45 215.65 282.25 216.6 283.2 217.4 C 284.6 218.6 286.3 219.5 287.95 219.95 C 289.55 220.45 291.15 220.6 292.7 220.65 C 293.45 220.6 294.15 220.6 294.9 220.5 C 295.7 220.45 296.35 220.3 297 220.15 C 298.2 219.85 299.4 219.45 300.7 219 C 303.2 218.05 306.05 216.75 309.4 215.1 C 315.15 212.15 322.15 208 329.5 202.65 C 340.5 194.65 352.3 183.95 361.6 170.5 C 366.2 163.8 370.2 156.35 373 148.25 C 375.45 141.3 377 133.85 377.4 126 C 379.85 127.55 382.4 129.25 384.95 131.1 C 397.4 140.1 410.75 152.65 423.55 166.7 C 442.8 187.7 461 212 474.2 232.6 C 480.8 242.9 486.2 252.3 489.8 259.7 C 491.6 263.4 493 266.65 493.85 269.1 C 494 269.55 494.15 270 494.25 270.4 C 493.15 270.5 491.8 270.55 490.25 270.6 Z M 490.25 270.6 " transform="matrix(0.078125,0,0,0.078125,0,0)"/>
</g>
</svg>
